<svg width="532" height="90" viewBox="0 0 532 90" fill="none" xmlns="http://www.w3.org/2000/svg">
<path d="M57.5243 72H43.8993C38.066 72 33.0035 71.0573 28.7118 69.1667C24.4306 67.2812 20.7847 64.7031 17.7743 61.4375C15.217 58.6198 13.1806 55.3438 11.6702 51.6042C10.1702 47.8542 9.42017 43.8333 9.42017 39.5417C9.42017 34.8229 10.3629 30.3958 12.2535 26.2708C14.1389 22.1354 16.691 18.5937 19.8993 15.6458C22.7743 13.0208 26.1754 10.9479 30.1077 9.41666C34.0504 7.875 38.6493 7.10416 43.8993 7.10416H57.5243C62.7743 7.10416 67.3629 7.875 71.2952 9.41666C75.2379 10.9479 78.6493 13.0208 81.5243 15.6458C84.717 18.5937 87.2587 22.1354 89.1493 26.2708C91.0348 30.3958 91.9827 34.8229 91.9827 39.5417C91.9827 43.8333 91.2431 47.8542 89.7743 51.6042C88.3004 55.3438 86.2535 58.6198 83.6285 61.4375C80.6806 64.7031 77.0504 67.2812 72.7327 69.1667C68.4098 71.0573 63.342 72 57.5243 72ZM57.5243 24.2917H43.8993C40.9514 24.2917 38.5139 24.6771 36.5868 25.4375C34.6702 26.2031 33.0087 27.2292 31.6077 28.5208C30.1337 29.9271 28.9618 31.5833 28.0868 33.5C27.2222 35.4167 26.7952 37.4687 26.7952 39.6458C26.7952 41.6354 27.1597 43.5104 27.8993 45.2708C28.6337 47.0208 29.6129 48.5729 30.8368 49.9167C32.2379 51.4583 33.9931 52.6823 36.1077 53.5833C38.217 54.474 40.816 54.9167 43.8993 54.9167H57.5243C60.592 54.9167 63.1806 54.474 65.2952 53.5833C67.4045 52.6823 69.1702 51.4583 70.5868 49.9167C71.8629 48.5729 72.8473 47.0208 73.5452 45.2708C74.2535 43.5104 74.6077 41.6354 74.6077 39.6458C74.6077 37.4687 74.1754 35.4167 73.316 33.5C72.4514 31.5833 71.2848 29.9271 69.816 28.5208C68.3993 27.2292 66.7327 26.2031 64.816 25.4375C62.8993 24.6771 60.467 24.2917 57.5243 24.2917Z" fill="#020202"/>
<path d="M113.292 49.4583V72.5H95.9167V11.6458C95.9167 8.95313 97.3594 7.60417 100.25 7.60417H146.333C150.292 7.60417 153.594 8.16667 156.25 9.29167C158.917 10.4063 161.146 11.8906 162.938 13.75C164.531 15.4167 165.797 17.3542 166.729 19.5625C167.656 21.7708 168.125 24.0938 168.125 26.5208C168.125 29.0781 167.672 31.5417 166.771 33.9167C165.88 36.2813 164.281 38.2917 161.979 39.9583C164.146 41.2396 165.719 42.8698 166.708 44.8542C167.708 46.8438 168.208 49.6875 168.208 53.3958V66.3542C168.208 67.7604 168.234 68.9115 168.292 69.8125C168.359 70.7031 168.427 71.599 168.5 72.5H150.938C150.74 71.0313 150.646 69.5938 150.646 68.1875V55.2292C150.646 53.1771 150.094 51.7031 149 50.8125C147.917 49.9115 146.094 49.4583 143.542 49.4583H113.292ZM113.292 34.6667H144.021C145.24 34.6667 146.234 34.4792 147 34.1042C147.76 33.7188 148.401 33.2031 148.917 32.5625C149.75 31.5365 150.167 30.4167 150.167 29.2083C150.167 27.7396 149.687 26.5208 148.729 25.5625C147.698 24.4115 146.13 23.8333 144.021 23.8333H104C102.837 23.5 114.292 27.5 113.292 27V34.6667Z" fill="#020202"/>
<path d="M179.242 7.10416H225.617C232.461 7.10416 237.773 9.15625 241.555 13.25C243.023 14.849 244.206 16.724 245.096 18.875C245.997 21.0156 246.451 23.4583 246.451 26.2083C246.451 28.9583 245.888 31.4896 244.763 33.7917C243.648 36.099 242.039 37.9531 239.93 39.3542C242.357 40.5781 244.164 42.4896 245.346 45.0833C246.524 47.6667 247.117 50.4687 247.117 53.4792C247.117 55.7865 246.711 57.9583 245.909 60C245.117 62.0417 244.018 63.8958 242.617 65.5625C240.951 67.5521 238.815 69.1198 236.221 70.2708C233.638 71.4271 230.419 72 226.576 72H179.242C176.367 72 174.93 70.625 174.93 67.875V11.1458C174.93 8.45312 176.367 7.10416 179.242 7.10416ZM192.305 45.3125V54.8125C192.305 55.7708 192.753 56.25 193.659 56.25H222.451C223.727 56.25 224.784 56.0781 225.617 55.7292C226.451 55.3854 227.086 54.9167 227.534 54.3333C228.435 53.25 228.888 52.0365 228.888 50.6875C228.888 49.4115 228.409 48.2292 227.451 47.1458C226.935 46.5625 226.289 46.1146 225.513 45.7917C224.747 45.474 223.727 45.3125 222.451 45.3125H192.305ZM192.305 33.6875H222.555C223.763 33.6875 224.747 33.5156 225.513 33.1667C226.289 32.8229 226.899 32.3281 227.346 31.6875C228.107 30.7292 228.492 29.6771 228.492 28.5208C228.492 27.3698 228.107 26.3125 227.346 25.3542C226.899 24.7708 226.289 24.3073 225.513 23.9583C224.747 23.599 223.763 23.4167 222.555 23.4167H184.5C183.594 23.4167 192.305 27 192.305 27V33.6875Z" fill="#020202"/>
<path d="M250.77 7.10416H268.249V72H250.77V7.10416Z" fill="#020202"/>
<path d="M271.887 7.10416H346.282V24.2917H317.866H310L317.866 28.5V72H300.407V24.2917H271.887V7.10416Z" fill="#020202"/>
<path d="M408.784 17.6667L432.2 69.125C432.461 69.6406 432.669 70.1198 432.825 70.5625C432.992 71.0104 433.138 71.4896 433.263 72H413.679C413.622 71.5573 413.513 71.1615 413.346 70.8125C413.179 70.4531 413.034 70.1146 412.909 69.7917L409.45 61.9167H371.054L367.7 69.6875C367.575 70.0781 367.44 70.4688 367.304 70.8542C367.179 71.2292 367.086 71.6146 367.034 72H346.971C347.096 71.4896 347.232 71.0104 347.388 70.5625C347.554 70.1198 347.763 69.6406 348.013 69.125L371.242 17.6667C373.101 13.6406 375.534 10.6354 378.534 8.64583C381.544 6.66146 385.393 5.66666 390.075 5.66666C398.893 5.66666 405.127 9.66666 408.784 17.6667ZM377.388 47.625H403.117L393.138 24.375C392.888 23.6823 392.482 23.1771 391.929 22.8542C391.388 22.5365 390.794 22.375 390.159 22.375C389.586 22.375 389.044 22.5208 388.534 22.8125C388.018 23.0937 387.601 23.6146 387.284 24.375L377.388 47.625Z" fill="#020202"/>
<path d="M504.78 72H457.655C452.333 72 448.14 71.2188 445.072 69.6458C441.999 68.0781 439.806 65.7292 438.489 62.6042C437.181 59.4688 436.53 55.5573 436.53 50.875V7.10416H454.01V49.25C454.01 51.6146 454.405 53.2292 455.197 54.1042C455.999 54.9688 457.52 55.3958 459.76 55.3958H504.78V72Z" fill="#020202"/>
</svg>
